<?xml version="1.0" encoding="utf-8"?>
<!-- Generator: Adobe Illustrator 22.1.0, SVG Export Plug-In . SVG Version: 6.00 Build 0)  -->
<svg version="1.1" id="Layer_1" xmlns="http://www.w3.org/2000/svg" xmlns:xlink="http://www.w3.org/1999/xlink" x="0px" y="0px"
	 viewBox="0 0 360 360" style="enable-background:new 0 0 360 360;" xml:space="preserve">
<style type="text/css">
	.st0{fill:#FFFFFF;}
</style>
<g>
	<path class="st0" d="M240.3,209.3c-27.9,16.4-56.9,21.2-86.3,14.1c-15.4-3.7-27.2-9.9-33.7-13.8c-3.3-2-7.5-1.2-9.8,1.8l0,0
		c-2.8,3.5-1.8,8.7,2,11c7.4,4.5,20.4,11.3,37.3,15.4c8.5,2.1,18.7,3.6,30.1,3.6c19.7,0,43-4.6,67.7-19.1c3.3-1.9,4.9-6.1,3.3-9.6
		C249,208.6,244,207.1,240.3,209.3z"/>
	<path class="st0" d="M299,2.9H61C42.2,2.9,27,18.1,27,36.8v246.6c0,18.7,15.2,33.9,33.9,33.9h162.5c35.3,0,69.8,10.7,98.6,31.2
		c7,5,11,8.6,11,8.6v-73.7V36.8C333,18.1,317.8,2.9,299,2.9z M279.2,242.7c-36.4,21.3-70.7,28.1-99.7,28.1
		c-16.7,0-31.7-2.3-44.3-5.4c-25-6.1-44.1-16.1-55-22.7c-5.6-3.4-7-11-3-16.2l0,0c3.5-4.4,9.7-5.5,14.5-2.6
		c9.5,5.8,27,14.9,49.6,20.4c43.3,10.4,86.1,3.4,127.1-20.8c5.6-3.3,12.9-1,15.7,5.1C286.5,233.7,284.1,239.8,279.2,242.7z"/>
</g>
</svg>
