<?xml version="1.0" encoding="utf-8"?>
<!-- Generator: Adobe Illustrator 22.1.0, SVG Export Plug-In . SVG Version: 6.00 Build 0)  -->
<svg version="1.1" id="Layer_1" xmlns="http://www.w3.org/2000/svg" xmlns:xlink="http://www.w3.org/1999/xlink" x="0px" y="0px"
	 viewBox="0 0 360 360" style="enable-background:new 0 0 360 360;" xml:space="preserve">
<style type="text/css">
	.st0{fill:#FFFFFF;}
</style>
<path class="st0" d="M212.1,180L350,42.1c8.9-8.9,8.9-23.2,0-32.1c-8.9-8.9-23.2-8.9-32.1,0L180,147.9L42.1,10
	C33.2,1.1,18.9,1.1,10,10c-8.9,8.9-8.9,23.2,0,32.1L147.9,180L10,317.9c-8.9,8.9-8.9,23.2,0,32.1c8.9,8.9,23.2,8.9,32.1,0L180,212.1
	L317.9,350c8.9,8.9,23.2,8.9,32.1,0c8.9-8.9,8.9-23.2,0-32.1L212.1,180z"/>
</svg>
